<svg xmlns="http://www.w3.org/2000/svg" viewBox="0 0 188.53 95.78"><defs><style>.cls-1,.cls-2,.cls-3{fill:#fff;}.cls-1{fill-rule:evenodd;}.cls-3{isolation:isolate;font-size:14.75px;font-family:MyriadPro-Semibold, Myriad Pro;font-weight:600;}</style></defs><g id="Capa_2" data-name="Capa 2"><g id="Capa_1-2" data-name="Capa 1"><g id="Capa_2-2" data-name="Capa 2"><g id="Capa_1-2-2" data-name="Capa 1-2"><path class="cls-1" d="M161.72,70.45V47.51h4.93v3.77a9.82,9.82,0,0,1,3.71-3.47,11,11,0,0,1,5.18-1.09,10.6,10.6,0,0,1,4.37.81,6.39,6.39,0,0,1,2.81,2.41,6.65,6.65,0,0,1,.88,2.21,25.87,25.87,0,0,1,.26,4.4v13.9h-5.3V58.68c0-3-.36-5-1.1-6s-2-1.49-3.91-1.49a7.4,7.4,0,0,0-3.28.68,5.36,5.36,0,0,0-2.26,1.9,5.13,5.13,0,0,0-.81,2.13A23.6,23.6,0,0,0,167,60V70.45ZM131.68,59a12.42,12.42,0,0,1,3.74-8.75,12.21,12.21,0,0,1,4.07-2.64,13.18,13.18,0,0,1,9.69,0,12.82,12.82,0,0,1,6.87,6.71A12.06,12.06,0,0,1,157,59a12.54,12.54,0,0,1-.94,4.76,11.79,11.79,0,0,1-2.72,4,13.39,13.39,0,0,1-4.19,2.74,12.73,12.73,0,0,1-16.48-6.69A11.85,11.85,0,0,1,131.68,59Zm19.72,0a7.75,7.75,0,0,0-2.06-5.42,6.82,6.82,0,0,0-9.64-.36,3.06,3.06,0,0,0-.36.36,8.14,8.14,0,0,0,0,10.83,6.78,6.78,0,0,0,9.59.4c.14-.13.28-.26.41-.4A7.64,7.64,0,0,0,151.4,59Zm-30,11.39V47.51h5.26V70.45ZM116.56,54a8.12,8.12,0,0,0-2.82-2,8.48,8.48,0,0,0-3.47-.7,6.69,6.69,0,0,0-5.16,2.08,7.74,7.74,0,0,0-1.93,5.51,7.78,7.78,0,0,0,2,5.63,7.09,7.09,0,0,0,5.39,2,8,8,0,0,0,3.41-.71,7.57,7.57,0,0,0,2.63-2.17v6A13,13,0,0,1,113.45,71a15,15,0,0,1-3.52.41,11.87,11.87,0,0,1-8.8-3.43,12.05,12.05,0,0,1-3.4-8.9,11.87,11.87,0,0,1,3.52-8.94,12.67,12.67,0,0,1,9.22-3.4,14,14,0,0,1,3.28.36,10.22,10.22,0,0,1,2.81,1.08ZM69.38,59a12.42,12.42,0,0,1,3.74-8.75,12.31,12.31,0,0,1,4.07-2.64,13.18,13.18,0,0,1,9.69,0,12.82,12.82,0,0,1,6.87,6.71,12.07,12.07,0,0,1,.9,4.68,12.54,12.54,0,0,1-.94,4.76,11.51,11.51,0,0,1-2.72,4,13.39,13.39,0,0,1-4.19,2.74,12.73,12.73,0,0,1-16.48-6.69A11.69,11.69,0,0,1,69.38,59ZM89.1,59A7.7,7.7,0,0,0,87,53.64a6.82,6.82,0,0,0-9.64-.36,3.06,3.06,0,0,0-.36.36,8.14,8.14,0,0,0,0,10.83,6.78,6.78,0,0,0,9.59.4c.14-.13.28-.26.41-.4A7.69,7.69,0,0,0,89.1,59ZM33.74,70.45H28.49V47.51h4.93v3.77A10.25,10.25,0,0,1,37,47.77a9.42,9.42,0,0,1,4.71-1.1,8.09,8.09,0,0,1,4.45,1.12,7,7,0,0,1,2.68,3.44,12,12,0,0,1,3.87-3.47,9.62,9.62,0,0,1,4.65-1.09,8.78,8.78,0,0,1,4,.84A6.23,6.23,0,0,1,64,49.94a5.91,5.91,0,0,1,.65,1.79,17.66,17.66,0,0,1,.2,3V70.45H59.55V58.68c0-3.08-.34-5.11-1-6.09a3.91,3.91,0,0,0-3.5-1.46,4.88,4.88,0,0,0-4.41,2q-1.32,2-1.32,6.91V70.45H44V58.68c0-2.84-.34-4.81-1-5.91a3.87,3.87,0,0,0-3.55-1.64,5.79,5.79,0,0,0-2.83.7,5.16,5.16,0,0,0-2.71,3.89,32.49,32.49,0,0,0-.19,4.3ZM18.35,56.23a5.58,5.58,0,0,0-1.88-3.75,6.55,6.55,0,0,0-4.31-1.3A6.44,6.44,0,0,0,8,52.43a6.81,6.81,0,0,0-2.19,3.8Zm5.45,3.52H5.47a7.7,7.7,0,0,0,1.92,5A6,6,0,0,0,12,66.56a7.85,7.85,0,0,0,4.23-1.07,8.92,8.92,0,0,0,2.95-3.44l4.41,2.47a13.48,13.48,0,0,1-4.79,5.15,12.87,12.87,0,0,1-6.69,1.69A11.72,11.72,0,0,1,3.28,68,12.32,12.32,0,0,1,0,59,12.14,12.14,0,0,1,3.4,50.15a11.51,11.51,0,0,1,8.67-3.47c3.69,0,6.57,1,8.63,3.17s3.09,5.07,3.1,8.87Z"/><path class="cls-2" d="M.08,40.3V23.59H4.29A13.18,13.18,0,0,1,7,23.78a4,4,0,0,1,1.46.64,3.94,3.94,0,0,1,1.21,1.5A5,5,0,0,1,10,28a3.85,3.85,0,0,1-.61,2.21,3.3,3.3,0,0,1-1.76,1.19,3.43,3.43,0,0,1,2.28,1.33,4.48,4.48,0,0,1,.83,2.79,5.54,5.54,0,0,1-.35,1.93,4.84,4.84,0,0,1-1,1.56,3.83,3.83,0,0,1-1.7,1,14.51,14.51,0,0,1-3.41.28Zm2.66-9.7h1a5.4,5.4,0,0,0,2.74-.52,2,2,0,0,0,.81-1.75,2.21,2.21,0,0,0-.74-1.89,5.18,5.18,0,0,0-2.81-.54h-1Zm0,7.4h.93a15.36,15.36,0,0,0,2.14-.12,2.83,2.83,0,0,0,1.12-.39,2.29,2.29,0,0,0,.77-.89A2.77,2.77,0,0,0,8,35.38,2.91,2.91,0,0,0,7.65,34a2.4,2.4,0,0,0-1-.92,3.67,3.67,0,0,0-.89-.28,7.28,7.28,0,0,0-1.31-.09H2.74Z"/><path class="cls-2" d="M13.18,40.3V23.59H17a11.34,11.34,0,0,1,2.59.22,4.06,4.06,0,0,1,1.57.71,3.93,3.93,0,0,1,1.2,1.56,5.34,5.34,0,0,1,.42,2.09,4.79,4.79,0,0,1-1,3.15,4.29,4.29,0,0,1-2.87,1.37l5.76,7.61H21.6L16,32.81h-.31V40.3Zm2.72-9.6h.49a5.58,5.58,0,0,0,2.87-.5,2.1,2.1,0,0,0,.7-1.79,2.31,2.31,0,0,0-.76-1.95,4.92,4.92,0,0,0-2.81-.56H15.9Z"/><path class="cls-2" d="M23.64,40.3l8.09-17.37L39.81,40.3H37L35,36H28.43l-1.94,4.26Zm5.8-6.56H34.1l-1.72-3.81c-.1-.25-.2-.53-.31-.84s-.21-.67-.31-1.06c-.1.37-.19.71-.3,1s-.2.61-.31.88Z"/><path class="cls-2" d="M41,40.3V22.93L51.64,33.15c.28.28.58.59.87.92s.61.7.94,1.11V23.59h2.48V41L45.11,30.55a8.67,8.67,0,0,1-.83-.89,12.1,12.1,0,0,1-.77-1V40.3Z"/><path class="cls-2" d="M59.44,40.3V23.59h3.67a23.3,23.3,0,0,1,5,.36,6.86,6.86,0,0,1,2.56,1.21A7.07,7.07,0,0,1,72.88,28a10.12,10.12,0,0,1,.75,4A9.87,9.87,0,0,1,72.88,36a7.25,7.25,0,0,1-2.19,2.83,7.14,7.14,0,0,1-2.5,1.2,19.32,19.32,0,0,1-4.35.36h-4.4Zm2.72-2.43h2.28a11.7,11.7,0,0,0,2.83-.25,4.25,4.25,0,0,0,1.63-.85,5.19,5.19,0,0,0,1.43-2,8.69,8.69,0,0,0,0-5.61,5,5,0,0,0-1.43-2,4.16,4.16,0,0,0-1.69-.85A14,14,0,0,0,64.12,26h-2Z"/><path class="cls-2" d="M76.43,40.3V23.59h2.72V40.3Z"/><path class="cls-2" d="M82.68,40.3V22.93L93.29,33.15c.29.28.58.59.88.92s.61.7.94,1.11V23.59h2.47V41L86.77,30.55a10.06,10.06,0,0,1-.84-.89,11.46,11.46,0,0,1-.77-1V40.3Z"/><path class="cls-2" d="M100.37,32a9,9,0,0,1,.64-3.49,7.91,7.91,0,0,1,1.92-2.82,8.14,8.14,0,0,1,2.86-1.83,9.58,9.58,0,0,1,3.52-.63,8.27,8.27,0,0,1,3.53.72,8.1,8.1,0,0,1,2.79,2.21l-2,1.49a5.53,5.53,0,0,0-1.9-1.46,5.76,5.76,0,0,0-2.38-.48,5.91,5.91,0,0,0-4.43,1.74A6.11,6.11,0,0,0,103.2,32a6.21,6.21,0,0,0,1.72,4.59,6,6,0,0,0,4.46,1.77A5.68,5.68,0,0,0,113,37.24a3.65,3.65,0,0,0,1.34-3V34h-4V31.74H117v1.58a7.32,7.32,0,0,1-2,5.48,7.89,7.89,0,0,1-5.7,2,10.4,10.4,0,0,1-3.67-.61,7.87,7.87,0,0,1-2.82-1.82A8.34,8.34,0,0,1,101,35.48,9.57,9.57,0,0,1,100.37,32Z"/><path class="cls-1" d="M129.12,41a4.59,4.59,0,1,1-1.34-3.25A4.45,4.45,0,0,1,129.12,41"/><path class="cls-1" d="M143.51,40.4c.1.55-.08.88-.52,1l-2.17.48c-.47.11-.76-.12-.88-.66a265.25,265.25,0,0,0-8.31-27.63c-1.16-3.22-1.87-5.36-2.11-6.44q-1.34-6,3.13-7t5.77,4.77a79.91,79.91,0,0,1,1,8.17q1.22,12.9,2.76,20.78Z"/><path class="cls-1" d="M151.54,41.72c-.19.52-.5.72-.94.59l-2.12-.67c-.45-.14-.59-.48-.43-1a265,265,0,0,0,6.63-28.08c.6-3.36,1.06-5.58,1.39-6.64q1.83-5.83,6.18-4.46t2.62,7a78.21,78.21,0,0,1-3.18,7.6q-5.4,11.76-8,19.37Z"/><path class="cls-1" d="M157.84,46.88c-.43.36-.8.37-1.11,0l-1.5-1.63c-.32-.36-.28-.72.13-1.09a265.19,265.19,0,0,0,19.78-21c2.2-2.61,3.71-4.3,4.52-5.05q4.5-4.14,7.59-.77T186,24.75a79.2,79.2,0,0,1-6.55,5q-10.56,7.5-16.61,12.78Z"/><text class="cls-3" transform="translate(0.08 92.09)">¡Si no emociona, no funciona!</text></g></g></g></g></svg>