<svg xmlns="http://www.w3.org/2000/svg" viewBox="0 0 188.53 95.76"><defs><style>.cls-1,.cls-2,.cls-3{fill:#00a0d8;}.cls-1{fill-rule:evenodd;}.cls-3{font-size:14.75px;font-family:MyriadPro-Semibold, Myriad Pro;font-weight:600;}</style></defs><g id="Capa_2" data-name="Capa 2"><g id="Capa_1-2" data-name="Capa 1"><path class="cls-1" d="M161.7,70.43V47.49h4.93v3.77a9.84,9.84,0,0,1,3.71-3.47,11.18,11.18,0,0,1,5.18-1.09,10.66,10.66,0,0,1,4.37.81,6.37,6.37,0,0,1,2.81,2.41,6.44,6.44,0,0,1,.88,2.21,25.31,25.31,0,0,1,.26,4.4v13.9h-5.3V58.66c0-3-.36-5-1.1-6s-2-1.49-3.91-1.49a7.52,7.52,0,0,0-3.28.68,5.42,5.42,0,0,0-2.26,1.9,5.21,5.21,0,0,0-.81,2.13A25.28,25.28,0,0,0,167,60V70.43ZM131.66,59a11.9,11.9,0,0,1,1-4.75,12,12,0,0,1,2.74-4,12.37,12.37,0,0,1,4.07-2.64,13.22,13.22,0,0,1,9.69,0,12.72,12.72,0,0,1,4.11,2.71,12.55,12.55,0,0,1,2.76,4,12,12,0,0,1,.94,4.67,12.21,12.21,0,0,1-.94,4.76,11.7,11.7,0,0,1-2.72,4,13.2,13.2,0,0,1-4.19,2.74,12.75,12.75,0,0,1-4.84.93,12.66,12.66,0,0,1-8.88-3.62,12.73,12.73,0,0,1-2.76-4A12,12,0,0,1,131.66,59Zm19.72,0a7.7,7.7,0,0,0-2.06-5.42,6.82,6.82,0,0,0-10,0,8.15,8.15,0,0,0,0,10.83,6.79,6.79,0,0,0,10,0A7.62,7.62,0,0,0,151.38,59Zm-30,11.39V47.49h5.26V70.43ZM116.54,54a8.14,8.14,0,0,0-2.82-2,8.54,8.54,0,0,0-3.47-.7,6.73,6.73,0,0,0-5.16,2.08,7.81,7.81,0,0,0-1.93,5.51,7.82,7.82,0,0,0,2,5.63,7.09,7.09,0,0,0,5.39,2,7.94,7.94,0,0,0,3.41-.71,7.48,7.48,0,0,0,2.63-2.17v6A12.5,12.5,0,0,1,113.43,71a14.77,14.77,0,0,1-3.52.41,11.84,11.84,0,0,1-8.8-3.43,12.1,12.1,0,0,1-3.4-8.9,11.9,11.9,0,0,1,3.52-8.94,12.7,12.7,0,0,1,9.22-3.4,14.09,14.09,0,0,1,3.28.36,10.49,10.49,0,0,1,2.81,1.08ZM69.36,59a11.9,11.9,0,0,1,1-4.75,12,12,0,0,1,2.74-4,12.47,12.47,0,0,1,4.07-2.64,13.22,13.22,0,0,1,9.69,0,12.72,12.72,0,0,1,4.11,2.71,12.55,12.55,0,0,1,2.76,4A12,12,0,0,1,94.63,59a12.21,12.21,0,0,1-.94,4.76,11.42,11.42,0,0,1-2.72,4,13.2,13.2,0,0,1-4.19,2.74,12.7,12.7,0,0,1-4.83.93,12.66,12.66,0,0,1-8.89-3.62,12.73,12.73,0,0,1-2.76-4A12,12,0,0,1,69.36,59Zm19.72,0A7.7,7.7,0,0,0,87,53.62a6.82,6.82,0,0,0-10,0,8.15,8.15,0,0,0,0,10.83,6.79,6.79,0,0,0,10,0A7.62,7.62,0,0,0,89.08,59ZM33.72,70.43H28.47V47.49H33.4v3.77A10.35,10.35,0,0,1,37,47.75a9.53,9.53,0,0,1,4.71-1.1,8.12,8.12,0,0,1,4.45,1.12,7,7,0,0,1,2.68,3.44,12.25,12.25,0,0,1,3.87-3.47,9.67,9.67,0,0,1,4.65-1.09,8.86,8.86,0,0,1,4,.84,6.18,6.18,0,0,1,2.63,2.43,5.64,5.64,0,0,1,.65,1.79,17.23,17.23,0,0,1,.2,3V70.43H59.53V58.66q0-4.62-1-6.09a3.92,3.92,0,0,0-3.5-1.46,4.92,4.92,0,0,0-4.41,2q-1.32,2-1.32,6.91V70.43H44V58.66q0-4.26-1-5.91a3.88,3.88,0,0,0-3.55-1.64,5.79,5.79,0,0,0-2.83.7,5.17,5.17,0,0,0-2.71,3.89A32.92,32.92,0,0,0,33.72,60ZM18.33,56.21a5.54,5.54,0,0,0-1.88-3.75,6.56,6.56,0,0,0-4.31-1.3A6.52,6.52,0,0,0,8,52.41a6.85,6.85,0,0,0-2.19,3.8Zm5.45,3.52H5.45a7.71,7.71,0,0,0,1.92,5,6,6,0,0,0,4.57,1.81,7.81,7.81,0,0,0,4.23-1.07,8.8,8.8,0,0,0,2.95-3.44l4.41,2.47a13.32,13.32,0,0,1-4.79,5.15,12.84,12.84,0,0,1-6.69,1.69A11.69,11.69,0,0,1,3.26,68,12.35,12.35,0,0,1,0,59a12.17,12.17,0,0,1,3.38-8.87,11.55,11.55,0,0,1,8.67-3.47q5.54,0,8.63,3.17t3.1,8.87Z"/><path class="cls-2" d="M.06,40.28V23.57H4.27a13.27,13.27,0,0,1,2.66.19,4,4,0,0,1,1.46.64A3.89,3.89,0,0,1,9.6,25.9,4.91,4.91,0,0,1,10,28a3.79,3.79,0,0,1-.61,2.21A3.24,3.24,0,0,1,7.63,31.4a3.4,3.4,0,0,1,2.28,1.33,4.47,4.47,0,0,1,.83,2.79,5.2,5.2,0,0,1-.35,1.93,4.5,4.5,0,0,1-1,1.56,3.72,3.72,0,0,1-1.7,1,14.22,14.22,0,0,1-3.41.28Zm2.66-9.7h1a5.26,5.26,0,0,0,2.74-.52,1.92,1.92,0,0,0,.81-1.75,2.2,2.2,0,0,0-.74-1.89,5.15,5.15,0,0,0-2.81-.54h-1Zm0,7.4h.93a13.88,13.88,0,0,0,2.14-.12,2.68,2.68,0,0,0,1.12-.39,2.22,2.22,0,0,0,.77-.89A2.64,2.64,0,0,0,8,35.36,2.83,2.83,0,0,0,7.63,34a2.34,2.34,0,0,0-1-.92,3.58,3.58,0,0,0-.89-.28,7.65,7.65,0,0,0-1.31-.09H2.72Z"/><path class="cls-2" d="M13.16,40.28V23.57H17a11.55,11.55,0,0,1,2.59.22,4.11,4.11,0,0,1,1.57.71,3.9,3.9,0,0,1,1.2,1.56,5.13,5.13,0,0,1,.42,2.09,4.75,4.75,0,0,1-1,3.15,4.26,4.26,0,0,1-2.87,1.37l5.76,7.61H21.58L16,32.79h-.31v7.49Zm2.72-9.6h.49a5.57,5.57,0,0,0,2.87-.5,2.07,2.07,0,0,0,.7-1.79,2.28,2.28,0,0,0-.76-1.95,4.94,4.94,0,0,0-2.81-.56h-.49Z"/><path class="cls-2" d="M23.62,40.28l8.09-17.37,8.08,17.37H36.93L35,36H28.41l-1.94,4.26Zm5.8-6.56h4.66l-1.72-3.81c-.1-.25-.2-.53-.31-.84s-.21-.67-.31-1.06c-.1.37-.19.71-.3,1s-.2.61-.31.88Z"/><path class="cls-2" d="M41,40.28V22.91L51.62,33.13c.28.28.58.59.87.92s.61.7.94,1.11V23.57h2.48V40.93L45.09,30.53a10,10,0,0,1-.83-.89,12.3,12.3,0,0,1-.77-1V40.28Z"/><path class="cls-2" d="M59.42,40.28V23.57h3.67a23.82,23.82,0,0,1,5,.36,6.81,6.81,0,0,1,2.56,1.21A7,7,0,0,1,72.86,28a9.93,9.93,0,0,1,.75,4,9.78,9.78,0,0,1-.75,3.94,7.13,7.13,0,0,1-2.19,2.83,7,7,0,0,1-2.5,1.2,19,19,0,0,1-4.35.36h-4.4Zm2.72-2.43h2.28a11.7,11.7,0,0,0,2.83-.25,4.1,4.1,0,0,0,1.63-.85,5,5,0,0,0,1.43-2,8.61,8.61,0,0,0,0-5.61,5,5,0,0,0-1.43-2,4.15,4.15,0,0,0-1.69-.85A14.21,14.21,0,0,0,64.1,26h-2Z"/><path class="cls-2" d="M76.41,40.28V23.57h2.72V40.28Z"/><path class="cls-2" d="M82.66,40.28V22.91L93.27,33.13c.29.28.58.59.88.92s.61.7.94,1.11V23.57h2.47V40.93L86.75,30.53a11.89,11.89,0,0,1-.84-.89c-.27-.31-.52-.64-.77-1V40.28Z"/><path class="cls-2" d="M100.35,32a9.22,9.22,0,0,1,.64-3.49,8,8,0,0,1,1.92-2.82,8.25,8.25,0,0,1,2.86-1.83,9.77,9.77,0,0,1,3.52-.63,8.34,8.34,0,0,1,3.53.72,8,8,0,0,1,2.79,2.21l-2,1.49a5.48,5.48,0,0,0-1.9-1.46,5.72,5.72,0,0,0-2.38-.48,5.94,5.94,0,0,0-4.43,1.74,6.15,6.15,0,0,0-1.72,4.53,6.26,6.26,0,0,0,1.72,4.59,5.93,5.93,0,0,0,4.46,1.77A5.66,5.66,0,0,0,113,37.22a3.62,3.62,0,0,0,1.34-2.95V34h-4V31.72H117c0,.12,0,.28,0,.48,0,.55,0,.91,0,1.1a7.26,7.26,0,0,1-2,5.48,7.88,7.88,0,0,1-5.7,1.95,10.27,10.27,0,0,1-3.67-.61,7.83,7.83,0,0,1-2.82-1.82A8.38,8.38,0,0,1,101,35.46,9.66,9.66,0,0,1,100.35,32Z"/><path class="cls-1" d="M129.1,41a4.58,4.58,0,1,1-1.34-3.25A4.44,4.44,0,0,1,129.1,41"/><path class="cls-1" d="M143.49,40.38c.1.55-.08.88-.52,1l-2.17.48c-.47.11-.76-.12-.88-.66a262.81,262.81,0,0,0-8.31-27.63q-1.74-4.82-2.11-6.44-1.33-6,3.13-7t5.77,4.77a78.58,78.58,0,0,1,1,8.17q1.22,12.9,2.76,20.78Z"/><path class="cls-1" d="M151.52,41.7c-.19.52-.5.72-.94.59l-2.12-.67c-.45-.14-.59-.48-.43-1a263.76,263.76,0,0,0,6.63-28.08c.6-3.36,1.06-5.58,1.39-6.64q1.83-5.83,6.18-4.46t2.62,7c-.45,1.42-1.52,4-3.18,7.6q-5.4,11.77-8,19.37Z"/><path class="cls-1" d="M157.82,46.86c-.43.36-.8.37-1.11,0l-1.5-1.63c-.32-.36-.28-.72.13-1.09a262.85,262.85,0,0,0,19.78-21c2.2-2.61,3.71-4.3,4.52-5.05q4.5-4.14,7.59-.77T186,24.73a78.49,78.49,0,0,1-6.55,5q-10.56,7.5-16.61,12.78Z"/><text class="cls-3" transform="translate(0.06 92.07)">¡Si no emociona, no funciona!</text></g></g></svg>